<?xml version="1.0" encoding="UTF-8" standalone="no"?>
<svg
   xmlns:dc="http://purl.org/dc/elements/1.1/"
   xmlns:cc="http://creativecommons.org/ns#"
   xmlns:rdf="http://www.w3.org/1999/02/22-rdf-syntax-ns#"
   xmlns:svg="http://www.w3.org/2000/svg"
   xmlns="http://www.w3.org/2000/svg"
   xmlns:sodipodi="http://sodipodi.sourceforge.net/DTD/sodipodi-0.dtd"
   xmlns:inkscape="http://www.inkscape.org/namespaces/inkscape"
   id="svg2992"
   viewBox="0 0 1910.22 527.71"
   version="1.1"
   sodipodi:docname="logo_path.svg"
   inkscape:version="0.92.3 (2405546, 2018-03-11)">
  <metadata
     id="metadata10">
    <rdf:RDF>
      <cc:Work
         rdf:about="">
        <dc:format>image/svg+xml</dc:format>
        <dc:type
           rdf:resource="http://purl.org/dc/dcmitype/StillImage" />
      </cc:Work>
    </rdf:RDF>
  </metadata>
  <defs
     id="defs8" />
  <sodipodi:namedview
     pagecolor="#ffffff"
     bordercolor="#666666"
     borderopacity="1"
     objecttolerance="10"
     gridtolerance="10"
     guidetolerance="10"
     inkscape:pageopacity="0"
     inkscape:pageshadow="2"
     inkscape:window-width="1366"
     inkscape:window-height="740"
     id="namedview6"
     showgrid="false"
     inkscape:zoom="0.53606392"
     inkscape:cx="587.407"
     inkscape:cy="155.2715"
     inkscape:window-x="0"
     inkscape:window-y="0"
     inkscape:window-maximized="1"
     inkscape:current-layer="svg2992" />
  <title
     id="title2">Amana logo</title>
  <path
     id="path2955"
     d="M326.33,179.39a10.58,10.58,0,0,0-3.59.69c-7.68,6.08-9.25,17.59-13,26C205.66,314.72,130.79,443.25,48.92,561.8l-29,18.31c15.3,22.23-13.8,33.67-13,53.59,2.22,6.9,9.94,16.84,18.35,16.84,20.66-16.06,22.2-45.12,43.61-61.24,63.43-33.58,129.28-66.5,196.57-84.13L254.71,679.53h-2.29c-3.08,10.73,9.87,21.42,18.34,27.57l7.61-5.33c-2.28-72.65,11.48-136.18,9.16-203.46,40.61-20.67,85.73-35.18,128.53-44.41C377.77,512,338.83,571,305.94,632.13L302.11,652c6.9,5.4,8.44,20,20.67,16.84,49.73-47.37,81-107.79,124.63-156h3.93c-10,37.46-33.71,71-29.92,111.62,6.11,6.11,12.26,20.73,23.67,16.83,49.86-37.5,82-97.13,125.45-136.14-8.3,39.08-41.23,85.63-7.62,123.17,32.93,19.87,54.31-26,81.16-32.9l-2.33,23.71c5.26,10,13,27.53,27.5,25.24,29.1-13,54.31-37.54,75.75-56.6,1.51,17.59,14.49,31.39,29.07,42.15,43.58,9.12,75.72-26.84,110.12-40.64-3.9,3.89,0,11.47-3.9,15.33,4.65,7.65,6.94,26,20.77,19.85,36.65-43.59,68-92.56,107.73-135.36l9.22-2.29c-13.77,42-55.91,76.44-42.11,124.7,33.71,64.21,86.51-9.94,127-14.58-3,8.47-3,13-2.36,22.23,6.9,10,13,23.67,29.82,18.34,49-19.09,94.92-47.44,139.25-78.76,7.62,42.83,52,73.37,91.81,82.59,181.26,19.16,377,6.9,548.43-31.36,0-.07,11.38-1,5.54-15.06-7.83-18.27-18.58-14.31-18.58-14.31-140.69,31.63-286,49.8-439.79,38.46-58.13-4.61-122.34.72-159.85-48.23-19.84-39,30.61-48.16,49.67-71.08,5.36-10.72-.65-23.7-9.12-29.13-12.23-3.79-22.92,6.08-32.86,12.26-45.09,53.52-106.36,89.52-163.71,113.91,52.77-61.1,118.59-97.82,178.23-146.8l1.5-16.05c-3.79-4.58-5.33-15.34-14.55-13-91.78,40.55-165.18,123.92-255.45,168.29-18.41,5.36-36.61,21.48-55.13,15.3,3.93-55,77.3-97.11,36.72-154.49-16.74-9.12-28.25,7.69-42,13-.79-10-6.15-20.66-14.58-23.63C940.75,496,882.62,555.65,823.7,587.76c-17.59,3.79-36.75,20.66-53.45,9.15-1.58-43.58,29.81-78,48.12-115.48-13.7-22.2,24.49-19.87,16-40.5-3.76-5.37-10.66-17.6-18.21-13-95.66,22.95-155.4,122.41-240.24,170.57l-2.33-1.57c10.69-43.58,23-85.66,39.08-126.2-3.08-12.23-7.69-27.46-22.27-29.78-54.24,35.21-81.74,103.25-133.79,141.47,10.69-34.43,31.39-65.75,29-102.5-3.83-12.2-20.63-31.36-32.82-18.38v-7.69c7.65-10.65-4.61-23.66-10.76-31.35C386.24,418,340.33,450.83,289.1,457.73c6.21-30.57,2.32-65.78,11.44-95.6,10.66-56.67,26.1-113.26,38.29-166.75C335.45,190.06,333.83,179.41,326.33,179.39Zm-34.91,92.4c-14.62,62.77-26,126.27-26,195.09L105.65,532.6C162.14,443.15,222.56,354.44,291.42,271.79ZM783.19,479.86C751.9,522.69,720.45,572.46,673,602.27,699.07,555.62,732,504.35,783.19,479.86Z"
     transform="translate(-6.86 -179.39)" />
</svg>
